# xmcd CD database file
#
# Track frame offsets:
#	150
#	19287
#	39000
#	58034
#
# Disc length: 1016 seconds
#
# Revision: 0
# Processed by: cddbd v1.5PL3 Copyright (c) Steve Scherf et al.
# Submitted via: CDex 1.50
#
DISCID=2803f604
DTITLE=kaoru - at parting
DYEAR=2002
DGENRE=JPop
TTITLE0=All of you
TTITLE1=How could I say farewell?
TTITLE2=Life goes on
TTITLE3=なみだをささげよう
EXTD=YEAR: 2002
EXTT0=
EXTT1=
EXTT2=
EXTT3=
PLAYORDER=
